# AST/ASF file generated using VICON BodyLanguage
# -----------------------------------------------
:version 1.10
:name VICON
:units
  mass 1.0
  length 0.45
  angle deg
:documentation
   .ast/.asf automatically generated from VICON data using
   VICON BodyBuilder and BodyLanguage model FoxedUp or BRILLIANT.MOD
:root
   order TX TY TZ RX RY RZ
   axis XYZ
   position 0 0 0  
   orientation 0 0 0 
:bonedata
  begin
     id 1 
     name lhipjoint
     direction 0.603808 -0.713975 0.35448 
     length 2.2025 
     axis 0 0 0  XYZ
  end
  begin
     id 2 
     name lfemur
     direction 0.34202 -0.939693 0  
     length 6.55877  
     axis 0 0 20  XYZ
    dof rx ry rz
    limits (-160.0 20.0)
           (-70.0 70.0)
           (-60.0 70.0)
  end
  begin
     id 3 
     name ltibia
     direction 0.34202 -0.939693 0   
     length 6.80302   
     axis 0 0 20   XYZ
    dof rx
    limits (-10.0 170.0)
  end
  begin
     id 4 
     name lfoot
     direction 0.091848 -0.25235 0.963267   
     length 2.03446   
     axis -90 7.62852e-016 20   XYZ
    dof rx rz
    limits (-45.0 90.0)
           (-70.0 20.0)
  end
  begin
     id 5 
     name ltoes
     direction 1.53608e-011 -4.21925e-011 1   
     length 1.02033   
     axis -90 7.62852e-016 20   XYZ
    dof rx
    limits (-90.0 20.0)
  end
  begin
     id 6 
     name rhipjoint
     direction -0.587285 -0.724947 0.359928   
     length 2.16916  
     axis 0 0 0  XYZ 
  end
  begin
     id 7 
     name rfemur
     direction -0.34202 -0.939693 0   
     length 6.43173   
     axis 0 0 -20   XYZ
    dof rx ry rz
    limits (-160.0 20.0)
           (-70.0 70.0)
           (-70.0 60.0)
  end
  begin
     id 8 
     name rtibia
     direction -0.34202 -0.939693 0   
     length 6.70662   
     axis 0 0 -20   XYZ
    dof rx
    limits (-10.0 170.0)
 end
 begin
     id 9 
     name rfoot
     direction -0.11854 -0.325686 0.938018   
     length 2.0773  
     axis -90 -7.62852e-016 -20   XYZ
    dof rx rz
    limits (-45.0 90.0)
           (-20.0 70.0)
  end
  begin
     id 10 
     name rtoes
     direction -1.53547e-011 -4.21838e-011 1   
     length 1.03267   
     axis -90 -7.62852e-016 -20   XYZ
    dof rx
    limits (-90.0 20.0)
  end
  begin
     id 11 
     name lowerback
     direction -0.0286554 0.999539 0.0100613   
     length 2.08751   
     axis 0 0 0   XYZ
    dof rx ry rz
    limits (-20.0 45.0)
           (-30.0 30.0)
           (-30.0 30.0)
  end
  begin
     id 12 
     name upperback
     direction 0.0227093 0.999705 -0.00860929   
     length 2.08517   
     axis 0 0 0   XYZ
    dof rx ry rz
    limits (-20.0 45.0)
           (-30.0 30.0)
           (-30.0 30.0)
  end
  begin
     id 13 
     name thorax
     direction 0.0351627 0.999285 -0.013892   
     length 2.08412   
     axis 0 0 0   XYZ
    dof rx ry rz
    limits (-20.0 45.0)
           (-30.0 30.0)
           (-30.0 30.0)
  end
  begin
     id 14 
     name lowerneck
     direction -0.0696283 0.997344 0.0213922   
     length 1.44164   
     axis 0 0 0   XYZ
    dof rx ry rz
    limits (-20.0 45.0)
           (-30.0 30.0)
           (-30.0 30.0)
  end
  begin
     id 15 
     name upperneck
     direction 0.0531 0.990412 -0.127531   
     length 1.45022   
     axis 0 0 0   XYZ
    dof rx ry rz
    limits (-20.0 45.0)
           (-30.0 30.0)
           (-30.0 30.0)
  end
  begin
     id 16
     name head
     direction 0.0188154 0.998548 -0.0504727  
     length 1.45845  
     axis 0 0 0   XYZ
    dof rx ry rz
    limits (-20.0 45.0)
           (-30.0 30.0)
           (-30.0 30.0)
  end
  begin
     id 17 
     name lclavicle
     direction 0.961559 0.260051 0.088188  
     length 2.86057  
     axis 0 0 0   XYZ
    dof ry rz
    limits (-20.0 10.0)
           (0.0 20.0)
  end
  begin
     id 18 
     name lhumerus
     direction 1 -4.48959e-011 2.88185e-027   
     length 4.36901   
     axis 180 -30 -90   XYZ
    dof rx ry rz
    limits (-60.0 90.0)
           (-90.0 90.0)
           (-90.0 90.0)
  end
  begin
     id 19
     name lradius
     direction 1 -4.48965e-011 -3.92618e-028   
     length 3.21737   
     axis 180 -30 -90   XYZ
    dof rx
    limits (-10.0 170.0)
  end
  begin
     id 20
     name lwrist
     direction 1 -4.49037e-011 2.57246e-027   
     length 1.60869   
     axis -1.61769e-015 90 90   XYZ
    dof ry
    limits (-180.0 0.0)
 end
  begin
     id 21 
     name lhand
     direction 1 -4.48807e-011 5.12958e-027   
     length 0.564313   
     axis -3.27988e-015 90 90   XYZ
    dof rx rz
    limits (-90.0 90.0)
           (-45.0 45.0)
  end
  begin
     id 22 
     name lfingers
     direction 1 -4.48879e-011 1.02687e-026   
     length 0.454963   
     axis -6.5598e-015 90 90   XYZ
    dof rx
    limits (0.0 90.0)
  end
  begin
     id 23
     name lthumb
     direction 0.707107 -6.3475e-011 0.707107   
     length 0.653239   
     axis -90 45 2.19363e-014   XYZ
    dof rx rz
    limits (-45.0 45.0)
           (-45.0 45.0)
  end
  begin
     id 24 
     name rclavicle
     direction -0.954677 0.253915 0.155304   
     length 3.11497  
     axis 0 0 0   XYZ 
    dof ry rz
    limits (-10.0 20.0)
           (-20.0 0.0)
  end
  begin
     id 25 
     name rhumerus
     direction -1 -4.48958e-011 -8.20169e-028  
     length 4.34118   
     axis 180 30 90   XYZ
    dof rx ry rz
    limits (-90.0 60.0)
           (-90.0 90.0)
           (-90.0 90.0)
  end
  begin
     id 26 
     name rradius
     direction -1 -4.48978e-011 1.5676e-027   
     length 3.09531   
     axis 180 30 90   XYZ
    dof rx
    limits (-10.0 170.0)
  end
  begin
     id 27 
     name rwrist
     direction -1 -4.49001e-011 2.57123e-027   
     length 1.54765   
     axis -1.61769e-015 -90 -90   XYZ
    dof ry
    limits (-180.0 0.0)
  end
  begin
     id 28
     name rhand
     direction -1 -4.48847e-011 5.13225e-027   
     length 0.597446   
     axis -3.27988e-015 -90 -90   XYZ
    dof rx rz
    limits (-90.0 90.0)
           (-45.0 45.0)
  end
  begin
     id 29
     name rfingers
     direction -1 -4.49094e-011 1.02974e-026   
     length 0.481677   
     axis -6.5598e-015 -90 -90   XYZ
    dof rx
    limits (0.0 90.0)
  end
  begin
     id 30
     name rthumb
     direction -0.707107 -6.34859e-011 0.707107   
     length 0.691594   
     axis -90 -45 -2.19363e-014   XYZ
    dof rx rz
    limits (-45.0 45.0)
           (-45.0 45.0)
  end
:hierarchy
  begin
    root lhipjoint rhipjoint lowerback
    lhipjoint lfemur
    lfemur ltibia
    ltibia lfoot
    lfoot ltoes
    rhipjoint rfemur
    rfemur rtibia
    rtibia rfoot
    rfoot rtoes
    lowerback upperback
    upperback thorax
    thorax lowerneck lclavicle rclavicle
    lowerneck upperneck
    upperneck head
    lclavicle lhumerus
    lhumerus lradius
    lradius lwrist
    lwrist lhand lthumb
    lhand lfingers
    rclavicle rhumerus
    rhumerus rradius
    rradius rwrist
    rwrist rhand rthumb
    rhand rfingers
  end

#!OML:ASF I:\Acrobat_Osman\acrobat\cartwheel_test 2\Patient 1\Session 1\acrobat.ASF
:FULLY-SPECIFIED
:DEGREES
1163
root 10.4946 14.7461 11.9401 28.2938 619.374 -731.553
lowerback 12.3497 1.73539 -0.636749
upperback 3.97077 2.11464 2.7762
thorax -2.88838 0.954343 2.94865
lowerneck -9.71404 4.16936 -2.46138
upperneck -9.97528 5.17466 -3.84943
head -1.46546 2.52901 -0.706656
rclavicle -2.38542e-015 -1.11319e-014
rhumerus -47.0176 -3.88433 289.206
rradius 39.0113
rwrist -726.041
rhand -16.0541 -1417.76
rfingers 7.12502
rthumb 10.148 -7.49893
lclavicle -2.38542e-015 -1.11319e-014
lhumerus -35.3225 -16.4254 90.5744
lradius 63.2031
lwrist 23.7188
lhand -19.2801 48.3852
lfingers 7.12502
lthumb 7.03481 78.2483
rfemur -39.543 -17.5086 18.6789
rtibia 80.3798
rfoot -7.66828 -8.16631
rtoes -45.4035
lfemur -40.5121 8.1506 -26.0396
ltibia 66.5673
lfoot -22.9692 11.5844
ltoes -49.1268
1164
root 10.2456 14.9446 11.9119 28.1835 619.382 -731.585
lowerback 11.8952 1.74066 -0.692951
upperback 3.7946 2.1296 2.70222
thorax -2.82474 0.970102 2.9077
lowerneck -10.2803 4.1392 -2.44863
upperneck -9.34045 5.1622 -4.26396
head -1.16224 2.50864 -0.812097
rclavicle 1.66979e-014 2.22639e-014
rhumerus -47.2064 -3.28328 287.666
rradius 40.1628
rwrist -725.478
rhand -15.3112 -1417.11
rfingers 7.12502
rthumb 10.8646 -6.80923
lclavicle 1.66979e-014 2.22639e-014
lhumerus -35.4913 -16.889 90.9593
lradius 64.4648
lwrist 24.5198
lhand -19.5293 48.1305
lfingers 7.12502
lthumb 6.79426 78.0015
rfemur -40.1084 -16.7874 19.8854
rtibia 77.3279
rfoot -8.59804 -8.95758
rtoes -46.3911
lfemur -38.2893 8.41817 -25.5665
ltibia 64.3545
lfoot -20.8098 9.48755
ltoes -50.1436
1165
root 9.9928 15.1482 11.8787 28.5953 619.195 -731.92
lowerback 11.2659 1.8343 -1.10844
upperback 3.5612 2.23012 2.72642
thorax -2.74641 1.03043 3.16426
lowerneck -10.7496 4.1113 -2.55121
upperneck -8.62871 5.17902 -4.59488
head -0.858613 2.50439 -0.874181
rclavicle 8.74653e-015 1.59028e-014
rhumerus -47.2247 -2.46294 286.396
rradius 41.0846
rwrist -724.111
rhand -14.0454 -1416.2
rfingers 7.12502
rthumb 12.0853 -5.82677
lclavicle 8.74653e-015 1.59028e-014
lhumerus -35.8631 -17.3382 91.4697
lradius 65.7045
lwrist 25.0191
lhand -19.9875 48.0184
lfingers 7.12502
lthumb 6.35189 77.9031
rfemur -40.8924 -16.0655 21.065
rtibia 73.8314
rfoot -9.77195 -9.50574
rtoes -47.2816
lfemur -36.4216 9.01123 -25.1286
ltibia 62.1866
lfoot -19.0558 6.04168
ltoes -48.9925
1166
root 9.73684 15.3429 11.8405 29.3998 618.904 -732.828
lowerback 10.8276 1.92933 -1.67768
upperback 3.38928 2.31325 2.68705
thorax -2.71098 1.08079 3.44156
lowerneck -11.0477 4.1042 -2.49806
upperneck -7.92678 5.21591 -4.84259
head -0.58373 2.50786 -0.940335
rclavicle 1.35174e-014 3.02153e-014
rhumerus -46.9733 -1.63475 285.213
rradius 41.7699
rwrist -722.442
rhand -12.1918 -1414.86
rfingers 7.12502
rthumb 13.8721 -4.37532
lclavicle 1.35174e-014 3.02153e-014
lhumerus -36.3238 -17.8795 91.8337
lradius 66.8385
lwrist 25.2959
lhand -20.4613 47.9301
lfingers 7.12502
lthumb 5.89451 77.8281
rfemur -41.4345 -15.5199 22.0022
rtibia 70.0042
rfoot -11.2238 -10.0154
rtoes -47.7313
lfemur -34.3813 9.87966 -24.7307
ltibia 60.056
lfoot -16.7301 2.47329
ltoes -47.7628
1167
root 9.47945 15.5108 11.8138 31.4742 619.37 -734.753
lowerback 10.1174 1.73082 -1.63011
upperback 3.13973 2.08006 2.58674
thorax -2.55776 0.975245 3.35266
lowerneck -11.1759 4.02934 -2.38763
upperneck -7.275 5.15834 -4.94371
head -0.354315 2.46728 -0.978832
rclavicle 1.27222e-014 2.70347e-014
rhumerus -46.506 -1.02134 284.196
rradius 42.3852
rwrist -720.876
rhand -10.4354 -1413.13
rfingers 7.12502
rthumb 15.5643 -2.52264
lclavicle 1.27222e-014 2.70347e-014
lhumerus -36.6976 -18.5748 92.0018
lradius 67.6998
lwrist 25.3957
lhand -21.0129 47.4291
lfingers 7.12502
lthumb 5.36191 77.3412
rfemur -42.2327 -15.7158 23.1055
rtibia 66.0125
rfoot -12.8016 -10.7629
rtoes -48.1276
lfemur -32.8392 10.0922 -24.1082
ltibia 58.1162
lfoot -13.2975 -1.29669
ltoes -46.0258
1168
root 9.21846 15.6519 11.7843 32.591 619.787 -735.967
lowerback 9.62237 1.65698 -1.50131
upperback 2.96772 2.01056 2.52952
thorax -2.45242 0.947026 3.23679
lowerneck -11.2839 3.82346 -2.4056
upperneck -6.53699 4.9527 -4.83155
head -0.112281 2.35683 -0.935832
rclavicle 1.59028e-015 7.95139e-015
rhumerus -45.9732 -0.524952 283.528
rradius 43.0588
rwrist -719.831
rhand -9.5076 -1411.75
rfingers 7.12502
rthumb 16.4578 -1.06723
lclavicle 1.59028e-015 7.95139e-015
lhumerus -36.9648 -19.2371 92.1386
lradius 68.2942
lwrist 24.8885
lhand -21.4985 46.7376
lfingers 7.12502
lthumb 4.89307 76.6611
rfemur -42.5467 -15.5516 24.0488
rtibia 61.9912
rfoot -14.1826 -11.6543
rtoes -48.9733
lfemur -31.1266 10.4053 -23.1407
ltibia 56.4092
lfoot -9.48199 -5.32837
ltoes -43.5672
1169
root 8.95545 15.7632 11.7489 34.165 619.991 -737.753
lowerback 9.03323 1.54489 -1.43559
upperback 2.90305 1.87562 2.25096
thorax -2.17402 0.883257 2.93645
lowerneck -11.2972 3.64293 -2.47207
upperneck -5.91219 4.78281 -4.37291
head 0.0690187 2.27392 -0.78125
rclavicle -9.14409e-015 -3.57812e-014
rhumerus -45.1682 0.0343521 282.775
rradius 43.7026
rwrist -719.363
rhand -9.90085 -1411.61
rfingers 7.12502
rthumb 16.0791 -0.965806
lclavicle -9.14409e-015 -3.57812e-014
lhumerus -37.195 -19.6789 91.8527
lradius 68.8429
lwrist 23.5702
lhand -21.6906 46.5569
lfingers 7.12502
lthumb 4.70753 76.4846
rfemur -42.6428 -14.8549 24.4583
rtibia 58.3185
rfoot -15.3646 -12.7412
rtoes -49.9924
lfemur -29.3957 10.6331 -22.223
ltibia 55.049
lfoot -6.51023 -8.97701
ltoes -42.593
1170
root 8.69487 15.8383 11.6969 35.5402 620 -739.409
lowerback 8.3339 1.50069 -1.73754
upperback 2.8871 1.80151 1.98232
thorax -1.80015 0.847702 2.84979
lowerneck -11.2007 3.52346 -2.4404
upperneck -5.31014 4.67549 -3.92868
head 0.230639 2.22444 -0.648085
rclavicle 1.98785e-014 3.18055e-015
rhumerus -44.1673 0.589177 282.237
rradius 44.3448
rwrist -719.142
rhand -10.4148 -1412.05
rfingers 7.12502
rthumb 15.5841 -1.44434
lclavicle 1.98785e-014 3.18055e-015
lhumerus -37.4327 -19.9226 91.3299
lradius 69.3337
lwrist 22.2644
lhand -21.2584 45.9158
lfingers 7.12502
lthumb 5.12488 75.8338
rfemur -42.5594 -13.475 24.4799
rtibia 55.3368
rfoot -16.0395 -13.9352
rtoes -51.0168
lfemur -27.6087 10.5807 -21.2077
ltibia 54.2056
lfoot -4.84064 -11.5619
ltoes -41.592
1171
root 8.44237 15.8583 11.6426 37.1653 619.982 -741.528
lowerback 7.7752 1.57963 -2.36041
upperback 2.86501 1.87218 1.82602
thorax -1.53233 0.882713 3.04381
lowerneck -10.9038 3.2996 -2.46729
upperneck -4.66232 4.4295 -3.50831
head 0.373553 2.11025 -0.520791
rclavicle -3.97569e-016 1.43125e-014
rhumerus -43.208 0.919483 282.204
rradius 45.0369
rwrist -719.216
rhand -10.7708 -1412.59
rfingers 7.12502
rthumb 15.2413 -2.00597
lclavicle -3.97569e-016 1.43125e-014
lhumerus -37.7131 -20.0837 90.8817
lradius 69.7113
lwrist 21.8145
lhand -20.0556 44.097
lfingers 7.12502
lthumb 6.28615 73.9837
rfemur -42.2592 -11.9617 24.1387
rtibia 53.4055
rfoot -16.0488 -14.4221
rtoes -51.3103
lfemur -25.7194 10.0279 -20.193
ltibia 54.0505
lfoot -4.23377 -11.8235
ltoes -40.4059
1172
root 8.20082 15.812 11.6004 40.0919 620.089 -745.202
lowerback 7.32961 1.54114 -2.96022
upperback 2.88893 1.79073 1.61776
thorax -1.26578 0.83886 3.18376
lowerneck -10.3876 3.00684 -2.76637
upperneck -4.01561 4.11327 -2.76321
head 0.467128 1.97345 -0.25567
rclavicle 4.77083e-015 1.59028e-015
rhumerus -42.181 1.37887 282.31
rradius 45.7626
rwrist -719.935
rhand -11.3515 -1412.94
rfingers 7.12502
rthumb 14.6818 -2.39678
lclavicle 4.77083e-015 1.59028e-015
lhumerus -37.8957 -20.0869 90.4295
lradius 69.9284
lwrist 21.9161
lhand -18.7126 43.1044
lfingers 7.12502
lthumb 7.58259 72.9485
rfemur -41.798 -10.9431 23.496
rtibia 52.6942
rfoot -15.5238 -13.9753
rtoes -51.0321
lfemur -23.8932 9.27826 -19.4129
ltibia 54.669
lfoot -4.55313 -9.49226
ltoes -41.3239
1173
root 7.96735 15.7093 11.5648 43.3469 620.218 -749.391
lowerback 6.89297 1.41938 -3.62725
upperback 2.98966 1.59915 1.47409
thorax -0.917324 0.733214 3.43758
lowerneck -9.99669 2.77274 -3.20908
upperneck -3.06513 3.89807 -1.97627
head 0.678569 1.8835 0.0556019
rclavicle -3.06128e-014 -1.03368e-014
rhumerus -40.9847 2.24626 282.575
rradius 46.5314
rwrist -721.213
rhand -11.9593 -1413.04
rfingers 7.12502
rthumb 14.0962 -2.54321
lclavicle -3.06128e-014 -1.03368e-014
lhumerus -37.7739 -19.609 89.9614
lradius 69.8233
lwrist 21.7832
lhand -15.7499 43.464
lfingers 7.12502
lthumb 10.4414 73.1847
rfemur -41.1429 -10.3073 22.8504
rtibia 53.2211
rfoot -14.2578 -12.9581
rtoes -50.1104
lfemur -22.1674 8.78055 -18.7089
ltibia 55.9488
lfoot -4.86199 -6.41255
ltoes -42.9902
1174
root 7.73749 15.5674 11.5332 46.7444 620.429 -753.896
lowerback 6.59736 1.33201 -4.30863
upperback 3.09265 1.45365 1.40541
thorax -0.647074 0.648272 3.76911
lowerneck -9.60869 2.50423 -3.56289
upperneck -1.90903 3.62244 -1.38823
head 0.967518 1.75512 0.294308
rclavicle 1.55052e-014 1.51076e-014
rhumerus -39.7691 3.02515 283.128
rradius 47.3354
rwrist -722.608
rhand -12.5728 -1413.43
rfingers 7.12502
rthumb 13.505 -2.97325
lclavicle 1.55052e-014 1.51076e-014
lhumerus -37.5113 -18.9574 89.5417
lradius 69.4179
lwrist 21.4727
lhand -13.0073 44.3012
lfingers 7.12502
lthumb 13.0861 73.8706
rfemur -40.2654 -10.1119 22.4274
rtibia 54.6384
rfoot -12.9921 -12.6786
rtoes -48.9726
lfemur -20.5502 8.31858 -17.9043
ltibia 57.7239
lfoot -4.87716 -4.3448
ltoes -43.3811
1175
root 7.50633 15.4047 11.499 50.1717 620.708 -758.671
lowerback 6.49845 1.29797 -4.83118
upperback 3.20964 1.38125 1.29419
thorax -0.471636 0.600553 3.95716
lowerneck -9.04039 2.10368 -3.99128
upperneck -0.782779 3.15212 -0.624939
head 1.22084 1.53338 0.592763
rclavicle -1.31198e-014 2.38542e-015
rhumerus -38.6324 3.54846 283.8
rradius 48.1148
rwrist -723.91
rhand -13.4855 -1414.01
rfingers 7.12502
rthumb 12.6251 -3.61027
lclavicle -1.31198e-014 2.38542e-015
lhumerus -37.1062 -18.4171 89.1061
lradius 68.6253
lwrist 21.0445
lhand -14.4695 45.2239
lfingers 7.12502
lthumb 11.6763 74.8785
rfemur -38.6155 -9.50211 21.6457
rtibia 56.6728
rfoot -14.6858 -13.1113
rtoes -46.6563
lfemur -18.9571 7.7434 -16.9846
ltibia 59.8222
lfoot -5.09358 -3.09561
ltoes -43.6806
1176
root 7.27276 15.2042 11.462 52.4501 621.143 -762.363
lowerback 6.40963 1.29015 -4.99891
upperback 3.35327 1.36392 1.17936
thorax -0.272451 0.581157 3.93676
lowerneck -8.41621 1.63327 -4.58985
upperneck 0.286621 2.57397 0.396069
head 1.45297 1.26192 1.0011
rclavicle -1.27222e-014 3.97569e-015
rhumerus -37.5276 3.89491 284.468
rradius 48.8406
rwrist -724.757
rhand -14.6651 -1414.47
rfingers 7.12502
rthumb 11.4878 -4.13914
lclavicle -1.27222e-014 3.97569e-015
lhumerus -36.5044 -17.6943 88.5506
lradius 67.462
lwrist 20.2351
lhand -16.2037 45.9458
lfingers 7.12502
lthumb 10.0036 75.688
rfemur -36.8253 -8.81635 21.1704
rtibia 58.7534
rfoot -16.9259 -14.5968
rtoes -47.0241
lfemur -17.5929 7.10946 -15.742
ltibia 62.2668
lfoot -5.46661 -1.95225
ltoes -44.2888
